<svg xmlns="http://www.w3.org/2000/svg" width="48" height="54"><path fill="#333" d="M46.469 11H1.531C.831 11 0 11.833 0 12.531l.042 29.938c0 .698.83 1.531 1.53 1.531H21l-.89 4.119c-.302 1.37-1.563 2.273-2.927 2.188l-.069.005a.345.345 0 0 0-.346.345c0 .153.104.28.243.324a.152.152 0 0 0 .042.015V51H30.95v-.005a.124.124 0 0 0 .042-.015.34.34 0 0 0 .244-.324.345.345 0 0 0-.346-.345l-.069-.005c-1.363.085-2.626-.817-2.928-2.188L27 44h19.469c.7 0 1.531-.833 1.531-1.531V12.531c0-.698-.831-1.531-1.531-1.531zM24.946 41.829a1.841 1.841 0 0 1-.189.303c-.033.039-.059.066-.076.085a.55.55 0 0 1-.107.073.227.227 0 0 1-.111.026.306.306 0 0 1-.09-.016l-.109-.034-.112-.035a.361.361 0 0 0-.211.002c-.04.011-.079.023-.118.036l-.109.035a.25.25 0 0 1-.171 0 .335.335 0 0 1-.09-.054.664.664 0 0 1-.096-.1 1.598 1.598 0 0 1-.379-1.002c0-.109.016-.211.048-.304a.788.788 0 0 1 .134-.242.613.613 0 0 1 .198-.159.549.549 0 0 1 .246-.056c.065 0 .143.019.231.056a.56.56 0 0 0 .183.057.2.2 0 0 0 .064-.017c.032-.011.079-.027.138-.05.059-.02.104-.034.138-.042a.58.58 0 0 1 .387.059.55.55 0 0 1 .21.186.548.548 0 0 0-.208.206.59.59 0 0 0-.063.28c0 .112.029.214.089.307a.552.552 0 0 0 .248.211c-.02.064-.046.128-.075.189zm-.951-1.523c0-.063.014-.125.042-.188a.638.638 0 0 1 .111-.173.584.584 0 0 1 .16-.125.453.453 0 0 1 .191-.053.08.08 0 0 1 .004.025v.027a.615.615 0 0 1-.147.369.505.505 0 0 1-.151.123.347.347 0 0 1-.171.045c-.024 0-.036-.003-.038-.014l-.001-.036zM46 38H2V13h44v25z"/></svg>